<svg xmlns="http://www.w3.org/2000/svg" width="368" height="160" class="svgbob"><style>.svgbob line, .svgbob path, .svgbob circle, .svgbob rect, .svgbob polygon {
    stroke: black;
    stroke-width: 2;
    stroke-opacity: 1;
    fill-opacity: 1;
    stroke-linecap: round;
    stroke-linejoin: miter;
}
.svgbob text {
    white-space: pre;
    fill: black;
    font-family: Iosevka Fixed, monospace;
    font-size: 14px;
}
.svgbob rect.backdrop {
    stroke: none;
    fill: white;
}
.svgbob .broken {
    stroke-dasharray: 8;
}
.svgbob .filled {
    fill: black;
}
.svgbob .bg_filled {
    fill: white;
    stroke-width: 1;
}
.svgbob .nofill {
    fill: white;
}
.svgbob .end_marked_arrow {
    marker-end: url(#arrow);
}
.svgbob .start_marked_arrow {
    marker-start: url(#arrow);
}
.svgbob .end_marked_diamond {
    marker-end: url(#diamond);
}
.svgbob .start_marked_diamond {
    marker-start: url(#diamond);
}
.svgbob .end_marked_circle {
    marker-end: url(#circle);
}
.svgbob .start_marked_circle {
    marker-start: url(#circle);
}
.svgbob .end_marked_open_circle {
    marker-end: url(#open_circle);
}
.svgbob .start_marked_open_circle {
    marker-start: url(#open_circle);
}
.svgbob .end_marked_big_open_circle {
    marker-end: url(#big_open_circle);
}
.svgbob .start_marked_big_open_circle {
    marker-start: url(#big_open_circle);
}<!--separator--></style><defs><marker id="arrow" viewBox="-2 -2 8 8" refX="4" refY="2" markerWidth="7" markerHeight="7" orient="auto-start-reverse"><polygon points="0,0 0,4 4,2 0,0"></polygon></marker><marker id="diamond" viewBox="-2 -2 8 8" refX="4" refY="2" markerWidth="7" markerHeight="7" orient="auto-start-reverse"><polygon points="0,2 2,0 4,2 2,4 0,2"></polygon></marker><marker id="circle" viewBox="0 0 8 8" refX="4" refY="4" markerWidth="7" markerHeight="7" orient="auto-start-reverse"><circle cx="4" cy="4" r="2" class="filled"></circle></marker><marker id="open_circle" viewBox="0 0 8 8" refX="4" refY="4" markerWidth="7" markerHeight="7" orient="auto-start-reverse"><circle cx="4" cy="4" r="2" class="bg_filled"></circle></marker><marker id="big_open_circle" viewBox="0 0 8 8" refX="4" refY="4" markerWidth="7" markerHeight="7" orient="auto-start-reverse"><circle cx="4" cy="4" r="3" class="bg_filled"></circle></marker></defs><rect class="backdrop" x="0" y="0" width="368" height="160"></rect><polygon points="88,4 80,8 88,12" class="filled"></polygon><polygon points="280,4 288,8 280,12" class="filled"></polygon><text x="114" y="28" >0</text><text x="130" y="28" >1</text><text x="146" y="28" >2</text><text x="162" y="28" >3</text><text x="178" y="28" >4</text><text x="194" y="28" >5</text><text x="210" y="28" >6</text><text x="226" y="28" >7</text><text x="242" y="28" >8</text><text x="258" y="28" >9</text><polygon points="96,36 88,40 96,44" class="filled"></polygon><polygon points="304,36 312,40 304,44" class="filled"></polygon><text x="130" y="60" >1</text><text x="162" y="60" >3</text><text x="194" y="60" >5</text><text x="226" y="60" >7</text><text x="258" y="60" >9</text><polygon points="112,68 104,72 112,76" class="filled"></polygon><polygon points="320,68 328,72 320,76" class="filled"></polygon><text x="146" y="92" >2</text><text x="210" y="92" >6</text><text x="274" y="92" >10</text><polygon points="128,100 120,104 128,108" class="filled"></polygon><polygon points="336,100 344,104 336,108" class="filled"></polygon><text x="178" y="124" >4</text><text x="306" y="124" >12</text><polygon points="144,132 136,136 144,140" class="filled"></polygon><polygon points="352,132 360,136 352,140" class="filled"></polygon><text x="2" y="28" >Scale</text><text x="50" y="28" >1</text><text x="2" y="60" >Scale</text><text x="50" y="60" >2</text><text x="2" y="92" >Scale</text><text x="50" y="92" >4</text><text x="2" y="124" >Scale</text><text x="50" y="124" >8</text><g><line x1="88" y1="8" x2="280" y2="8" class="solid"></line><line x1="108" y1="8" x2="108" y2="40" class="solid"></line><line x1="124" y1="8" x2="124" y2="72" class="solid"></line><line x1="140" y1="8" x2="140" y2="40" class="solid"></line><line x1="156" y1="8" x2="156" y2="72" class="solid"></line><line x1="172" y1="8" x2="172" y2="40" class="solid"></line><line x1="188" y1="8" x2="188" y2="72" class="solid"></line><line x1="204" y1="8" x2="204" y2="40" class="solid"></line><line x1="220" y1="8" x2="220" y2="72" class="solid"></line><line x1="236" y1="8" x2="236" y2="40" class="solid"></line><line x1="252" y1="8" x2="252" y2="72" class="solid"></line><line x1="268" y1="8" x2="268" y2="40" class="solid"></line><line x1="96" y1="40" x2="304" y2="40" class="solid"></line><line x1="284" y1="40" x2="284" y2="72" class="solid"></line><line x1="112" y1="72" x2="320" y2="72" class="solid"></line><line x1="140" y1="72" x2="140" y2="104" class="solid"></line><line x1="204" y1="72" x2="204" y2="104" class="solid"></line><line x1="268" y1="72" x2="268" y2="104" class="solid"></line><line x1="128" y1="104" x2="336" y2="104" class="solid"></line><line x1="172" y1="104" x2="172" y2="136" class="solid"></line><line x1="300" y1="104" x2="300" y2="136" class="solid"></line><line x1="144" y1="136" x2="352" y2="136" class="solid"></line></g></svg>