<svg xmlns="http://www.w3.org/2000/svg" width="368" height="176" class="svgbob"><style>.svgbob line, .svgbob path, .svgbob circle, .svgbob rect, .svgbob polygon {
    stroke: black;
    stroke-width: 2;
    stroke-opacity: 1;
    fill-opacity: 1;
    stroke-linecap: round;
    stroke-linejoin: miter;
}
.svgbob text {
    white-space: pre;
    fill: black;
    font-family: Iosevka Fixed, monospace;
    font-size: 14px;
}
.svgbob rect.backdrop {
    stroke: none;
    fill: white;
}
.svgbob .broken {
    stroke-dasharray: 8;
}
.svgbob .filled {
    fill: black;
}
.svgbob .bg_filled {
    fill: white;
    stroke-width: 1;
}
.svgbob .nofill {
    fill: white;
}
.svgbob .end_marked_arrow {
    marker-end: url(#arrow);
}
.svgbob .start_marked_arrow {
    marker-start: url(#arrow);
}
.svgbob .end_marked_diamond {
    marker-end: url(#diamond);
}
.svgbob .start_marked_diamond {
    marker-start: url(#diamond);
}
.svgbob .end_marked_circle {
    marker-end: url(#circle);
}
.svgbob .start_marked_circle {
    marker-start: url(#circle);
}
.svgbob .end_marked_open_circle {
    marker-end: url(#open_circle);
}
.svgbob .start_marked_open_circle {
    marker-start: url(#open_circle);
}
.svgbob .end_marked_big_open_circle {
    marker-end: url(#big_open_circle);
}
.svgbob .start_marked_big_open_circle {
    marker-start: url(#big_open_circle);
}<!--separator-->.svgbob .a{ 
    fill: lightblue;
 }</style><defs><marker id="arrow" viewBox="-2 -2 8 8" refX="4" refY="2" markerWidth="7" markerHeight="7" orient="auto-start-reverse"><polygon points="0,0 0,4 4,2 0,0"></polygon></marker><marker id="diamond" viewBox="-2 -2 8 8" refX="4" refY="2" markerWidth="7" markerHeight="7" orient="auto-start-reverse"><polygon points="0,2 2,0 4,2 2,4 0,2"></polygon></marker><marker id="circle" viewBox="0 0 8 8" refX="4" refY="4" markerWidth="7" markerHeight="7" orient="auto-start-reverse"><circle cx="4" cy="4" r="2" class="filled"></circle></marker><marker id="open_circle" viewBox="0 0 8 8" refX="4" refY="4" markerWidth="7" markerHeight="7" orient="auto-start-reverse"><circle cx="4" cy="4" r="2" class="bg_filled"></circle></marker><marker id="big_open_circle" viewBox="0 0 8 8" refX="4" refY="4" markerWidth="7" markerHeight="7" orient="auto-start-reverse"><circle cx="4" cy="4" r="3" class="bg_filled"></circle></marker></defs><rect class="backdrop" x="0" y="0" width="368" height="176"></rect><rect x="172" y="8" width="48" height="32" class="solid nofill a" rx="0"></rect><line x1="172" y1="48" x2="172" y2="68" class="broken"></line><line x1="220" y1="48" x2="220" y2="68" class="broken"></line><polygon points="168,68 176,68 172,80" class="filled"></polygon><polygon points="216,68 224,68 220,80" class="filled"></polygon><polygon points="112,84 104,88 112,92" class="filled"></polygon><polygon points="320,84 328,88 320,92" class="filled"></polygon><text x="146" y="108" >2</text><text x="210" y="108" >6</text><text x="274" y="108" >10</text><polygon points="128,116 120,120 128,124" class="filled"></polygon><polygon points="336,116 344,120 336,124" class="filled"></polygon><text x="178" y="140" >4</text><text x="306" y="140" >12</text><polygon points="144,148 136,152 144,156" class="filled"></polygon><polygon points="352,148 360,152 352,156" class="filled"></polygon><text x="2" y="108" >Scale</text><text x="50" y="108" >4</text><text x="2" y="140" >Scale</text><text x="50" y="140" >8</text><g><line x1="112" y1="88" x2="320" y2="88" class="solid"></line><line x1="140" y1="88" x2="140" y2="120" class="solid"></line><line x1="204" y1="88" x2="204" y2="120" class="solid"></line><line x1="268" y1="88" x2="268" y2="120" class="solid"></line><line x1="128" y1="120" x2="336" y2="120" class="solid"></line><line x1="172" y1="120" x2="172" y2="152" class="solid"></line><line x1="300" y1="120" x2="300" y2="152" class="solid"></line><line x1="144" y1="152" x2="352" y2="152" class="solid"></line></g></svg>